<svg width="288" height="239" viewBox="0 0 288 239" fill="none" xmlns="http://www.w3.org/2000/svg">
<path d="M236.754 74.6581C233.501 96.3207 231.685 105.313 226.444 118.243C223.153 126.367 216.975 135.465 209.372 140.919" stroke="#BED3E2" stroke-width="2.7054" stroke-miterlimit="10" stroke-linecap="round" stroke-linejoin="round"/>
<path fill-rule="evenodd" clip-rule="evenodd" d="M210.871 42.568C209.506 56.5857 218.114 69.2918 230.901 73.6241C231.915 73.9609 232.94 74.2437 234.002 74.4784C235.159 74.7366 236.358 74.9287 237.581 75.0488C238.3 75.1173 239.019 75.1678 239.732 75.1824C255.177 75.5769 268.529 63.9536 270.048 48.3291C270.094 47.8734 270.128 47.4118 270.15 46.9622C270.962 31.1792 259.215 17.3973 243.333 15.8483C227.002 14.2535 212.46 26.2241 210.871 42.568Z" fill="#75D284"/>
<path fill-rule="evenodd" clip-rule="evenodd" d="M230.556 77.8987L241.564 79.9562L239.733 75.1825L238.792 72.7479L237.961 70.5645L235.189 73.3163L234.008 74.4785L230.556 77.8987Z" fill="#75D284"/>
<path fill-rule="evenodd" clip-rule="evenodd" d="M218.603 32.2179C219.908 33.2245 221.289 33.9071 222.712 34.7454C223.516 32.3505 225.274 30.4125 226.978 28.5526C227.205 28.3058 227.663 27.7463 227.884 27.4996C226.699 26.5643 225.521 25.629 224.336 24.6937C221.895 26.6589 219.517 29.2231 218.603 32.2179Z" fill="white"/>
<path fill-rule="evenodd" clip-rule="evenodd" d="M217.663 37.4482C218.69 38.0426 219.825 38.5706 220.911 39.0449C221.273 38.1922 221.453 37.0228 221.814 36.1701C220.697 35.5281 219.544 34.9403 218.367 34.4065C218.114 35.3726 217.922 36.4821 217.663 37.4482Z" fill="white"/>
<path fill-rule="evenodd" clip-rule="evenodd" d="M8.12078 170.024C7.57495 171.504 7.12114 172.849 6.57909 174.324C8.31682 175.403 10.4222 175.723 12.384 175.524C14.3458 175.326 15.9106 174.666 17.7386 174.019C17.8655 173.975 17.8073 173.751 17.7808 173.467C17.6624 171.896 17.4376 170.261 17.1085 168.705C14.3276 169.666 11.0694 170.859 8.12078 170.024Z" fill="#FED806"/>
<path fill-rule="evenodd" clip-rule="evenodd" d="M29.8512 143.717C29.9878 145.103 30.0778 146.352 30.2124 147.733C28.5961 148.17 26.8394 147.872 25.3038 147.179C23.7682 146.486 22.6456 145.513 21.309 144.481C21.216 144.41 21.3086 144.237 21.3879 144.007C21.8036 142.723 22.3176 141.414 22.8996 140.199C24.9375 141.751 27.312 143.624 29.8512 143.717Z" fill="#75D284"/>
<path fill-rule="evenodd" clip-rule="evenodd" d="M262.7 133.423C263.406 134.712 264.087 135.857 264.793 137.14C267.269 136.758 269.463 135.661 271.102 134.32C272.742 132.979 273.64 131.587 274.791 130.041C274.872 129.935 274.635 129.826 274.379 129.66C272.989 128.724 271.449 127.813 269.877 127.016C268.108 129.354 266.089 132.136 262.7 133.423Z" fill="#75D284"/>
<path fill-rule="evenodd" clip-rule="evenodd" d="M245.148 175.396C242.641 173.585 239.953 174.062 237.916 175.561C236.425 176.656 235.114 178.438 235 181.033C235.798 182.114 236.61 183.443 237.327 184.631C238.092 179.232 241.169 175.542 245.148 175.396Z" fill="#EB6164"/>
<path fill-rule="evenodd" clip-rule="evenodd" d="M243.572 174.573C245.714 175.644 247.865 175.415 249.693 174.485C251.522 173.555 252.794 171.871 254.281 170.235C254.718 172.197 255.435 174.125 256.375 175.848C255.197 177.854 253.54 178.857 251.531 178.979C249.522 179.1 247.305 178.146 245.362 176.33C244.797 175.809 244.042 175.269 243.572 174.573Z" fill="#2A95D8"/>
<path fill-rule="evenodd" clip-rule="evenodd" d="M65.8845 52.6072C64.6885 55.5137 65.713 58.1124 67.5857 59.8416C68.9485 61.1068 70.9355 62.0446 73.4419 61.605C74.3044 60.5743 75.4051 59.4752 76.3867 58.4983C71.0546 58.8842 66.8709 56.5786 65.8845 52.6072Z" fill="#39AC38"/>
<path fill-rule="evenodd" clip-rule="evenodd" d="M65.4322 54.3703C66.004 51.9915 65.3226 49.8763 64.0456 48.2351C62.7686 46.5986 60.8816 45.6754 58.9994 44.5324C60.7815 43.6775 62.4731 42.5394 63.9217 41.2352C66.0898 41.9923 67.4049 43.4431 67.9482 45.441C68.4914 47.4339 68.053 49.8666 66.7331 52.2064C66.3519 52.8707 65.9993 53.7451 65.4322 54.3703Z" fill="#277C2A"/>
<path fill-rule="evenodd" clip-rule="evenodd" d="M6.68991 78.2352C8.18256 77.7263 9.51335 77.2303 11 76.7214C10.7422 74.6922 9.66322 72.8563 8.27248 71.4585C6.88175 70.0606 5.3831 69.2618 3.7286 68.2505C3.6147 68.1796 3.47686 68.3664 3.27304 68.5661C2.12808 69.6483 1.00109 70.8529 0 72.0898C2.49973 73.6422 5.47901 75.4201 6.68991 78.2352Z" fill="#FED806"/>
<path d="M102.08 207.631L101.292 207.249C97.5674 205.444 95.9897 200.92 97.794 197.194L104.38 183.57C106.184 179.844 110.708 178.266 114.432 180.07L115.22 180.452C118.945 182.257 120.522 186.781 118.718 190.507L112.132 204.131C110.327 207.857 105.804 209.435 102.08 207.631Z" fill="#CDEDFB" stroke="#8BCAE8" stroke-miterlimit="10"/>
<path d="M98.6189 195.468L94.9839 202.986L92.5256 201.797C89.1581 200.169 85.0853 201.582 83.4596 204.956C81.8315 208.325 83.2434 212.399 86.6109 214.028L97.3037 219.201C100.671 220.829 104.744 219.417 106.37 216.042L112.959 202.41L98.6189 195.468Z" fill="#F8B501" stroke="#EDAF18" stroke-miterlimit="10"/>
<path d="M133.706 213.233L132.901 212.893C129.089 211.284 127.286 206.842 128.901 203.026L134.788 189.085C136.397 185.271 140.837 183.468 144.652 185.082L145.457 185.423C149.269 187.032 151.071 191.474 149.457 195.29L143.569 209.231C141.961 213.044 137.52 214.848 133.706 213.233Z" fill="#CDEDFB" stroke="#8BCAE8" stroke-miterlimit="10"/>
<path d="M129.546 201.487L126.391 208.957L123.877 207.895C120.432 206.437 116.44 208.056 114.979 211.51C113.522 214.957 115.141 218.956 118.592 220.411L129.529 225.033C132.974 226.491 136.966 224.873 138.427 221.418L144.228 207.692L129.546 201.487Z" fill="#F8B501" stroke="#EDAF18" stroke-miterlimit="10"/>
<path d="M155.368 200.311C181.718 204.617 206.572 186.744 210.886 160.386C214.901 135.842 199.679 112.603 176.285 106.039C171.327 93.3998 160.059 83.6067 145.686 81.256C125.076 77.8862 105.613 91.0129 100.674 110.94C80.6473 109.854 62.6064 124.011 59.2933 144.261C55.7445 165.957 70.4485 186.424 92.1383 189.971L155.368 200.311Z" fill="#CDEDFB" stroke="#8BCAE8" stroke-miterlimit="10"/>
<path d="M72.7879 127.954L61.2799 113.852C59.2158 111.327 59.6006 107.568 62.1269 105.509C64.6514 103.445 68.4087 103.829 70.4667 106.356L81.9747 120.459" fill="#CDEDFB"/>
<path d="M72.7879 127.954L61.2799 113.852C59.2158 111.327 59.6006 107.568 62.1269 105.509C64.6514 103.445 68.4087 103.829 70.4667 106.356L81.9747 120.459" stroke="#8BCAE8" stroke-miterlimit="10" stroke-linecap="round" stroke-linejoin="round"/>
<path d="M202.345 151.365L219.561 142.826C222.645 141.297 223.914 137.523 222.386 134.438C220.859 131.353 217.086 130.084 214.002 131.613L196.786 140.152" fill="#CDEDFB"/>
<path d="M202.345 151.365L219.561 142.826C222.645 141.297 223.914 137.523 222.386 134.438C220.859 131.353 217.086 130.084 214.002 131.613L196.786 140.152" stroke="#8BCAE8" stroke-miterlimit="10" stroke-linecap="round" stroke-linejoin="round"/>
<path d="M130.355 122.563C131.546 116.894 128.336 111.42 123.186 110.337C118.035 109.254 112.893 112.972 111.702 118.641C110.511 124.31 113.721 129.784 118.871 130.867C124.022 131.95 129.164 128.232 130.355 122.563Z" fill="white"/>
<path d="M155.573 126.233C156.765 120.564 153.445 115.068 148.158 113.956C142.871 112.845 137.62 116.539 136.429 122.208C135.237 127.877 138.557 133.374 143.844 134.485C149.13 135.597 154.382 131.902 155.573 126.233Z" fill="white"/>
<path d="M140.866 136.469C141.085 136.503 141.188 136.758 141.064 136.973C140.171 138.54 136.725 143.776 130.931 142.842C124.236 141.764 123.332 135.853 123.211 134.11C123.195 133.871 123.416 133.658 123.64 133.694L140.866 136.469Z" fill="#0D74B4"/>
<path d="M100.988 140.791C107.125 139.841 111.331 134.095 110.382 127.956C109.433 121.817 103.689 117.61 97.5512 118.56C91.4138 119.51 87.2078 125.257 88.1567 131.396C89.1056 137.535 94.8503 141.741 100.988 140.791Z" fill="#FFDEDD"/>
<path d="M164.716 154.862C171.45 153.82 176.065 147.515 175.024 140.779C173.983 134.043 167.68 129.427 160.946 130.47C154.212 131.512 149.597 137.817 150.638 144.553C151.679 151.289 157.982 155.905 164.716 154.862Z" fill="#FFDEDD"/>
<path d="M127.68 122.533C128.215 119.258 126.017 116.173 122.771 115.642C119.524 115.11 116.458 117.335 115.922 120.609C115.386 123.884 117.584 126.97 120.831 127.501C124.078 128.032 127.144 125.808 127.68 122.533Z" fill="#0D74B4"/>
<path d="M152.505 126.448C153.041 123.171 150.885 120.091 147.69 119.569C144.494 119.046 141.469 121.278 140.933 124.554C140.397 127.831 142.553 130.911 145.749 131.434C148.945 131.957 151.969 129.724 152.505 126.448Z" fill="#0D74B4"/>
<path fill-rule="evenodd" clip-rule="evenodd" d="M163.825 49.6898C164.982 46.8177 166.425 44.3098 168.463 42.0608C166.575 41.6064 165.241 41.1045 163.303 40.9897C163.091 43.1667 163.155 45.1095 163.314 47.2929C163.366 48.1271 163.545 48.91 163.825 49.6898Z" fill="#FED806"/>
<path fill-rule="evenodd" clip-rule="evenodd" d="M163.811 49.7177C164.409 48.9232 165.258 48.3515 166.177 47.9858C167.097 47.6202 168.085 47.4482 169.071 47.3529C169.908 47.2746 170.754 47.2585 171.571 47.4319C171.713 48.3863 171.875 49.312 171.972 50.267C171.48 50.1389 170.936 50.0445 170.44 49.936C169.76 49.7861 169.083 49.6548 168.389 49.5834C166.95 49.436 165.251 49.5458 163.811 49.7177Z" fill="#FED806"/>
<path fill-rule="evenodd" clip-rule="evenodd" d="M163.839 49.7385C162.857 49.6161 161.933 49.1657 161.155 48.5521C160.378 47.9386 159.736 47.17 159.164 46.3587C158.682 45.674 158.243 44.9441 157.986 44.1479C158.742 43.546 159.46 42.9499 160.246 42.3815C160.379 42.8714 160.574 43.39 160.726 43.8771C160.937 44.54 161.159 45.1948 161.442 45.8275C162.025 47.1604 162.971 48.5774 163.839 49.7385Z" fill="#FED806"/>
<path fill-rule="evenodd" clip-rule="evenodd" d="M130.562 81.774C131.952 83.2117 133.316 84.5258 134.662 85.7214C136.991 87.7922 139.249 89.5232 141.424 90.9607C143.065 92.0468 144.668 92.9666 146.205 93.7435C154.003 97.6801 160.443 97.9471 164.655 97.3845C164.812 97.3666 164.961 97.3372 165.11 97.3141L165.141 97.3093C166.37 97.1256 167.396 96.8711 168.176 96.6355L168.182 96.6345C169.413 96.259 170.081 95.9194 170.081 95.9194L169.219 89.5182L166.743 71.0696L165.878 64.605L163.794 49.1077L163.695 49.2061L160.853 51.9942L160.848 52.0014L154.098 58.6426L145.724 66.8687L143.443 69.1108L142.761 69.7778L140.552 71.9512L130.562 81.774Z" fill="#EB6164"/>
<path fill-rule="evenodd" clip-rule="evenodd" d="M158.16 67.6694L162.058 69.6507L162.639 73.9895L165.726 70.889L166.744 71.0761L165.878 64.6116L165.803 64.6231L162.787 61.4525L162.103 65.7765L158.16 67.6694Z" fill="white"/>
<path fill-rule="evenodd" clip-rule="evenodd" d="M154.098 58.6486L154.443 60.7585L157.433 57.5646L161.758 58.2289L159.653 54.3877L160.848 52.0075L154.098 58.6486Z" fill="white"/>
<path fill-rule="evenodd" clip-rule="evenodd" d="M140.548 71.9644L143.47 73.3308L144.183 77.6493L147.173 74.4617L151.498 75.1197L149.392 71.2785L151.352 67.3697L147.052 68.1884L145.726 66.8748L143.438 69.1178L143.394 69.4563L142.757 69.791L140.548 71.9644Z" fill="white"/>
<path fill-rule="evenodd" clip-rule="evenodd" d="M158.029 74.7415L155.199 78.5552L150.832 77.8272L153.149 82.3376L151.394 86.9934L155.657 85.97L158.938 89.5719L159.252 84.4245L163.043 82L158.977 79.8404L158.029 74.7415Z" fill="white"/>
<path fill-rule="evenodd" clip-rule="evenodd" d="M134.664 85.7274C136.993 87.7982 139.251 89.5291 141.426 90.9667L141.425 90.9604L145.248 88.8308L141.235 87.0908L140.398 82.7916L137.499 86.0736L134.664 85.7274Z" fill="white"/>
<path fill-rule="evenodd" clip-rule="evenodd" d="M164.643 97.4322L165.112 97.3278L165.143 97.323L168.178 96.6492L168.184 96.6482C169.414 96.2727 170.083 95.9331 170.083 95.9331L169.221 89.5319L168.614 90.2257L164.27 89.6919L166.492 93.464L164.663 97.3972L164.643 97.4322Z" fill="white"/>
</svg>
